<?xml version="1.0" standalone="no"?>
<!DOCTYPE svg PUBLIC "-//W3C//DTD SVG 20010904//EN"
 "http://www.w3.org/TR/2001/REC-SVG-20010904/DTD/svg10.dtd">
<svg version="1.0" xmlns="http://www.w3.org/2000/svg"
 width="260.000000pt" height="260.000000pt" viewBox="0 0 260.000000 260.000000"
 preserveAspectRatio="xMidYMid meet">
<metadata>
Created by potrace 1.14, written by Peter Selinger 2001-2017
</metadata>
<g transform="translate(0.000000,260.000000) scale(0.100000,-0.100000)"
fill="#000000" stroke="none">
<path d="M1250 2430 c0 -3 -19 -6 -43 -7 -57 -2 -91 -9 -116 -22 -11 -7 -21
-9 -21 -5 0 3 -7 1 -15 -6 -8 -7 -15 -9 -15 -4 0 5 -4 5 -8 -1 -4 -5 -29 -21
-57 -35 -27 -13 -53 -29 -57 -35 -5 -6 -12 -5 -19 5 -9 13 -10 13 -6 -2 4 -11
-6 -26 -31 -45 -50 -38 -111 -100 -105 -107 3 -3 -2 -8 -11 -12 -9 -3 -16 -11
-16 -17 0 -6 -10 -22 -22 -35 -13 -14 -17 -22 -9 -17 9 5 12 4 7 -3 -4 -7 -15
-12 -24 -13 -10 0 -12 -3 -5 -5 9 -4 7 -14 -6 -38 -17 -29 -35 -86 -36 -111 0
-5 -7 -16 -15 -23 -13 -12 -13 -13 0 -6 13 7 13 5 1 -9 -9 -12 -10 -17 -2 -17
7 0 9 -5 6 -10 -4 -6 -9 -8 -13 -6 -11 7 -8 -128 3 -136 6 -4 2 -8 -8 -8 -17
0 -17 -1 -3 -16 11 -10 14 -24 10 -41 -6 -21 -4 -24 7 -18 8 5 11 5 7 0 -4 -4
-2 -17 4 -29 10 -19 8 -18 -17 4 l-28 25 29 -39 c29 -39 29 -39 4 -27 -24 11
-24 11 -6 -3 11 -9 24 -16 30 -16 5 0 6 -3 3 -7 -4 -3 2 -20 13 -38 11 -18 17
-35 13 -39 -4 -4 -1 -12 7 -17 11 -8 9 -9 -10 -4 -24 7 -24 7 -5 -8 11 -8 23
-13 27 -11 3 2 9 -9 13 -26 4 -18 11 -27 17 -24 6 4 8 3 5 -2 -3 -5 5 -19 17
-29 21 -18 21 -21 7 -33 -15 -11 -15 -12 0 -7 23 8 112 -81 104 -105 -3 -11 1
-20 11 -24 14 -5 14 -9 3 -24 -13 -15 -12 -16 4 -3 13 10 17 10 17 1 0 -9 3
-10 14 -1 7 6 22 8 31 4 13 -4 16 -3 11 5 -10 17 -1 15 13 -2 9 -11 9 -16 0
-22 -8 -5 -10 -3 -4 7 5 8 4 11 0 6 -5 -4 -9 -17 -10 -29 -2 -20 -1 -20 11 -3
7 10 24 19 37 20 20 2 24 -1 20 -16 -3 -10 -9 -16 -14 -13 -5 3 -7 10 -4 15 3
5 -2 6 -11 2 -16 -6 -16 -7 1 -19 9 -7 14 -18 10 -26 -3 -7 0 -5 8 4 16 20 28
14 21 -10 -5 -14 -4 -14 6 1 8 13 15 15 30 7 10 -6 21 -6 24 -2 3 5 0 9 -7 10
-45 4 -67 23 -32 28 8 1 13 -2 9 -7 -5 -9 9 -13 34 -10 6 1 12 -3 12 -9 0 -5
6 -9 13 -7 7 1 11 -7 11 -21 -1 -12 1 -20 5 -17 3 4 6 12 6 17 0 6 6 13 13 16
8 2 10 -2 6 -13 -6 -15 -4 -15 29 -2 19 9 38 12 42 9 11 -11 129 -8 137 3 5 6
8 5 8 -3 0 -8 5 -10 13 -6 8 5 8 2 -2 -9 -13 -17 -26 -24 -17 -9 2 4 -15 8
-40 8 -24 1 -42 -2 -39 -5 7 -12 -50 -8 -57 3 -12 17 -9 -7 2 -24 6 -10 13
-11 18 -5 4 6 23 10 42 10 19 0 40 4 47 8 7 5 16 1 22 -10 6 -11 11 -13 11 -5
0 7 5 10 12 6 6 -4 8 -3 5 3 -4 6 0 13 8 17 9 3 12 12 9 23 -4 11 -3 14 3 7 4
-6 17 -9 28 -7 11 2 27 5 35 5 8 1 21 7 28 15 8 7 18 11 23 8 5 -4 9 -1 9 6 0
7 3 9 6 6 4 -3 16 -1 28 5 28 16 46 18 46 7 0 -8 -15 -13 -32 -10 -5 0 -8 -4
-8 -11 0 -6 -3 -8 -6 -5 -4 3 -16 1 -28 -5 -11 -7 -25 -11 -29 -10 -5 1 -6 -1
-3 -6 3 -5 0 -9 -7 -10 -22 -3 -62 -10 -67 -12 -3 -1 -8 -2 -12 -2 -3 1 -8 -4
-11 -11 -3 -7 5 -13 21 -14 16 0 20 2 12 7 -8 5 -9 10 -2 14 6 4 15 -2 21 -11
10 -17 10 -17 11 0 0 10 5 15 10 12 6 -3 10 -1 10 5 0 6 4 9 9 5 6 -3 16 1 23
8 11 12 16 12 38 0 22 -13 23 -13 8 0 -10 8 -18 17 -18 20 0 7 22 3 38 -6 16
-11 31 -1 31 21 1 38 5 51 13 46 4 -3 8 0 8 5 0 6 5 11 10 11 11 0 28 12 58
42 11 11 22 14 31 8 17 -10 51 9 51 27 0 7 5 13 11 13 5 0 7 -6 3 -12 -6 -9
-3 -9 9 0 9 8 15 19 14 25 -1 6 4 11 12 12 8 0 16 7 18 15 3 9 1 11 -4 5 -4
-6 -13 -11 -20 -10 -16 0 -30 15 -14 15 7 0 10 4 6 9 -3 5 0 13 6 17 8 4 9 3
5 -4 -4 -7 -2 -12 3 -12 6 0 11 9 11 20 0 11 7 23 15 26 8 4 12 10 9 15 -3 5
0 17 6 26 9 14 10 14 7 2 -3 -9 1 -16 8 -16 8 0 11 7 7 15 -4 11 -1 13 9 8 8
-4 6 -1 -3 6 -15 11 -15 13 4 22 12 6 23 18 26 26 3 9 -2 7 -12 -5 -8 -11 -16
-15 -16 -8 0 6 4 14 10 18 5 3 7 12 3 20 -3 8 0 16 6 16 6 1 16 2 21 3 6 0 9
6 8 11 -2 6 -6 9 -10 8 -12 -4 -9 25 2 32 6 4 7 11 4 17 -4 6 -2 8 3 5 6 -4
14 0 17 9 3 8 2 13 -2 10 -5 -3 -8 9 -8 25 1 16 8 34 16 39 8 5 10 10 4 10
-10 0 -11 21 -4 55 1 6 1 12 0 15 -1 3 -3 26 -5 53 -2 31 0 47 8 47 8 0 7 4
-2 9 -8 5 -16 19 -18 31 -2 12 1 19 6 15 5 -3 13 -1 16 5 4 6 3 10 -2 9 -22
-4 -33 3 -33 19 0 9 -9 36 -20 60 -10 23 -15 42 -10 42 6 0 10 5 10 10 0 6 -6
9 -12 8 -7 -2 -12 3 -10 10 1 6 -2 12 -6 12 -5 0 -19 19 -32 43 -13 23 -30 46
-37 50 -7 5 -12 11 -10 15 1 4 -17 26 -40 48 -24 23 -43 40 -43 38 0 -2 -8 4
-18 14 -11 9 -17 21 -14 26 3 5 1 6 -5 3 -5 -4 -25 5 -43 18 -19 14 -40 25
-47 25 -8 0 -16 7 -19 15 -4 8 -10 13 -14 10 -4 -3 -25 3 -46 12 -22 9 -42 18
-46 19 -5 1 -11 3 -15 4 -5 1 -16 2 -25 1 -10 -1 -18 1 -18 6 0 7 -23 10 -147
17 -18 1 -33 -1 -33 -4z m59 -216 c12 8 41 -3 41 -16 0 -6 -6 -6 -14 1 -11 10
-20 10 -37 1 -14 -8 -19 -8 -15 -1 4 6 2 11 -3 11 -6 0 -11 -5 -11 -12 0 -6
-2 -9 -5 -6 -3 3 -3 13 1 22 5 12 10 14 20 5 7 -6 17 -8 23 -5z m-61 -35 c-15
-10 -32 16 -22 33 5 7 11 5 21 -7 10 -15 10 -20 1 -26z m168 -14 c8 -18 13
-23 14 -12 0 9 5 17 11 17 5 0 8 -4 5 -8 -2 -4 4 -9 16 -9 11 -1 28 -11 38
-22 19 -23 40 -30 21 -8 -6 8 -7 18 -3 22 4 5 1 5 -6 1 -7 -4 -15 -1 -18 8 -3
9 -10 13 -15 10 -6 -3 -16 0 -24 6 -8 6 -18 9 -23 6 -5 -3 -9 1 -9 9 0 10 5
11 17 5 10 -5 21 -6 25 -2 5 4 4 1 0 -7 -6 -11 -4 -13 7 -8 9 3 25 -1 36 -8
10 -8 22 -12 25 -9 3 3 8 0 13 -7 4 -8 3 -10 -4 -5 -14 8 -15 4 -6 -18 3 -9
12 -16 20 -16 8 0 14 -5 14 -11 0 -6 -9 -9 -19 -6 -14 3 -18 1 -14 -9 5 -14
14 -11 41 9 11 8 9 13 -10 23 -13 8 -18 13 -12 14 18 0 65 -41 59 -51 -4 -5 0
-9 8 -9 17 0 40 -26 44 -48 1 -9 6 -18 10 -19 29 -11 38 -22 25 -35 -11 -11
-13 -11 -10 1 2 7 -5 15 -14 16 -10 2 -18 0 -18 -3 0 -12 40 -33 50 -27 6 4 6
-3 0 -19 -6 -17 -6 -27 1 -32 6 -4 6 -11 -2 -20 -8 -10 -8 -14 0 -14 12 0 14
10 13 50 -1 19 1 21 8 10 5 -8 6 -18 4 -22 -3 -4 -2 -8 3 -8 4 0 9 -15 10 -32
2 -18 3 -40 4 -48 0 -8 3 -22 6 -30 10 -26 10 -60 0 -60 -5 0 -3 -8 4 -17 10
-12 11 -15 1 -9 -9 6 -11 1 -8 -20 4 -18 -1 -35 -12 -48 -9 -11 -11 -16 -4
-12 14 8 15 5 6 -18 -3 -9 -9 -14 -13 -12 -4 3 -6 -9 -5 -25 2 -22 -2 -29 -11
-25 -10 3 -12 0 -8 -11 4 -11 2 -14 -5 -9 -7 4 -10 -1 -7 -13 5 -26 -118 -157
-136 -145 -7 4 -9 3 -5 -4 3 -6 -3 -13 -14 -17 -11 -3 -20 -11 -20 -17 0 -5
-7 -8 -15 -4 -8 3 -15 1 -15 -4 0 -6 -9 -10 -20 -10 -11 0 -20 -4 -20 -9 0
-13 -139 -31 -195 -25 -85 8 -93 10 -107 21 -13 11 -18 13 -39 13 -5 0 -8 4
-5 9 4 5 -2 7 -12 4 -10 -2 -24 3 -31 11 -8 9 -19 16 -25 16 -6 0 -18 9 -26
19 -7 11 -17 18 -21 15 -15 -9 -20 17 -7 34 11 15 11 16 -3 4 -14 -10 -20 -8
-43 14 -14 15 -26 31 -26 36 0 5 -7 16 -15 25 -8 8 -13 19 -10 24 4 5 2 9 -2
9 -5 0 -14 9 -21 21 -11 17 -11 20 0 14 7 -3 4 1 -6 9 -20 16 -20 16 0 17 18
1 18 2 0 6 -14 4 -16 7 -6 13 8 5 15 16 16 24 1 9 -2 14 -7 10 -5 -3 -7 -10
-4 -15 4 -5 2 -9 -3 -9 -17 0 -22 13 -9 28 9 13 9 14 0 8 -8 -4 -13 -2 -14 6
0 7 -2 23 -3 35 -2 14 2 20 8 16 7 -5 7 -2 0 8 -6 8 -11 23 -11 34 0 11 5 26
11 34 7 10 8 13 0 8 -6 -3 -11 0 -11 8 0 8 4 12 9 9 4 -3 6 9 4 25 -2 17 1 31
6 31 5 0 6 5 3 10 -3 6 -2 10 4 10 5 0 8 8 7 18 -5 27 16 53 31 40 8 -6 16 -8
20 -4 3 3 1 6 -5 6 -17 0 -15 31 3 56 8 12 11 25 7 29 -4 5 -1 5 6 1 6 -4 12
-3 12 2 0 5 18 27 40 50 22 22 40 36 40 31 0 -6 5 -7 10 -4 6 4 7 11 4 17 -4
6 3 5 16 -2 20 -11 21 -10 15 10 -5 15 -3 20 3 16 6 -3 13 -2 17 4 4 6 11 8
16 4 5 -3 7 -10 3 -15 -3 -5 -10 -7 -15 -4 -11 7 -11 3 -2 -21 6 -16 7 -16 13
1 7 19 40 31 40 14 0 -5 5 -9 12 -9 9 0 9 3 0 12 -16 16 -15 31 1 21 6 -4 17
-8 22 -8 6 -1 9 -7 7 -15 -2 -8 -1 -13 1 -10 3 3 5 7 4 10 0 3 5 14 11 26 9
16 8 21 -4 21 -7 0 -14 -4 -14 -8 0 -4 -9 -6 -20 -4 -11 2 -24 -3 -30 -13 -8
-15 -10 -13 -10 16 0 4 4 7 9 7 5 0 12 3 16 7 4 4 14 4 23 1 11 -5 13 -3 7 8
-6 11 -5 12 5 2 11 -10 17 -10 29 0 9 8 12 8 8 1 -4 -7 0 -17 8 -24 12 -10 13
-16 3 -29 -11 -14 -11 -14 3 -4 9 7 20 9 24 5 5 -4 5 -2 2 4 -6 10 7 21 31 25
4 0 15 5 25 11 19 10 51 -7 42 -22 -3 -5 4 -6 15 -3 11 3 20 9 20 14 0 5 -8 6
-17 3 -15 -5 -16 -4 -3 5 8 6 11 11 7 11 -5 0 -5 5 -2 10 9 15 35 -8 51 -45z
m401 -897 c0 -7 -12 -14 -26 -15 -24 -1 -25 -1 -6 13 23 17 32 18 32 2z m-37
-32 c0 -2 -6 -9 -13 -15 -10 -8 -14 -7 -14 4 0 8 6 15 14 15 7 0 13 -2 13 -4z
m-897 -51 c-3 -10 -1 -13 9 -10 9 4 15 0 15 -10 0 -20 -10 -19 -32 5 -11 12
-13 20 -6 20 7 0 9 5 5 12 -4 7 -3 8 4 4 6 -4 9 -13 5 -21z m727 -95 c0 -5 -4
-10 -10 -10 -5 0 -10 5 -10 10 0 6 5 10 10 10 6 0 10 -4 10 -10z"/>
<path d="M1370 2206 c0 -2 8 -10 18 -17 15 -13 16 -12 3 4 -13 16 -21 21 -21
13z"/>
<path d="M1302 2178 c-7 -7 -12 -17 -12 -22 0 -6 5 -3 11 8 9 15 13 16 20 5 6
-9 9 -10 9 -2 0 18 -15 24 -28 11z"/>
<path d="M1386 2162 c-3 -5 1 -9 9 -9 8 0 12 4 9 9 -3 4 -7 8 -9 8 -2 0 -6 -4
-9 -8z"/>
<path d="M1355 2149 c-4 -6 -5 -12 -2 -15 2 -3 7 2 10 11 7 17 1 20 -8 4z"/>
<path d="M1457 2125 c3 -8 9 -12 14 -9 12 7 11 11 -5 17 -10 4 -13 1 -9 -8z"/>
<path d="M1025 2110 c-4 -6 -10 -8 -15 -5 -4 3 -13 -2 -20 -10 -7 -8 -9 -15
-4 -15 5 -1 -2 -7 -16 -15 -14 -7 -24 -16 -22 -20 2 -3 -7 -15 -20 -27 l-23
-20 25 15 c14 8 24 20 23 26 -2 6 3 11 10 11 8 0 22 9 32 20 12 13 26 18 39
14 15 -4 17 -3 7 4 -7 5 -10 15 -7 21 4 6 5 11 2 11 -3 0 -8 -5 -11 -10z"/>
<path d="M1592 2076 c1 -13 6 -22 10 -20 5 3 12 -5 17 -18 8 -20 10 -20 10 -4
1 11 4 16 8 12 10 -10 15 -48 5 -42 -4 2 -8 -4 -8 -15 0 -27 18 -6 21 25 2 14
-3 30 -11 37 -8 6 -14 8 -14 4 0 -4 -7 -2 -15 5 -8 7 -13 16 -10 20 3 5 1 11
-5 15 -6 4 -9 -4 -8 -19z"/>
<path d="M946 2005 c-11 -8 -15 -15 -9 -15 6 0 16 7 23 15 16 19 11 19 -14 0z"/>
<path d="M906 1981 c-4 -5 -2 -12 3 -15 5 -4 12 -2 15 3 4 5 2 12 -3 15 -5 4
-12 2 -15 -3z"/>
<path d="M1667 1939 c7 -7 15 -10 18 -7 3 3 -2 9 -12 12 -14 6 -15 5 -6 -5z"/>
<path d="M869 1938 c-7 -29 -5 -36 7 -31 16 6 18 19 4 28 -5 3 -10 5 -11 3z"/>
<path d="M1675 1911 c-3 -5 -2 -12 3 -15 5 -3 9 1 9 9 0 17 -3 19 -12 6z"/>
<path d="M862 1878 c-15 -15 -15 -28 -1 -28 5 0 8 4 4 9 -3 6 3 14 12 20 10 6
13 11 8 11 -6 0 -16 -5 -23 -12z"/>
<path d="M1715 1841 c-3 -5 -2 -12 3 -15 5 -3 9 1 9 9 0 17 -3 19 -12 6z"/>
<path d="M854 1815 c-3 -8 -4 -20 -2 -27 3 -7 7 -1 10 15 6 29 1 36 -8 12z"/>
<path d="M1738 1763 c5 -21 7 -23 10 -9 2 10 0 22 -6 28 -6 6 -7 0 -4 -19z"/>
<path d="M830 1746 c0 -2 7 -7 16 -10 8 -3 12 -2 9 4 -6 10 -25 14 -25 6z"/>
<path d="M835 1691 c-3 -5 -2 -12 3 -15 5 -3 9 1 9 9 0 17 -3 19 -12 6z"/>
<path d="M1726 1662 c-3 -5 1 -9 9 -9 8 0 12 4 9 9 -3 4 -7 8 -9 8 -2 0 -6 -4
-9 -8z"/>
<path d="M1987 1819 c7 -7 15 -10 18 -7 3 3 -2 9 -12 12 -14 6 -15 5 -6 -5z"/>
<path d="M1993 1769 c-2 -23 3 -25 10 -4 4 8 3 16 -1 19 -4 3 -9 -4 -9 -15z"/>
<path d="M580 1660 c8 -5 20 -10 25 -10 6 0 3 5 -5 10 -8 5 -19 10 -25 10 -5
0 -3 -5 5 -10z"/>
<path d="M1973 1631 c0 -11 5 -17 9 -15 4 3 8 0 8 -7 0 -7 3 -9 6 -6 4 4 2 13
-4 20 -7 8 -9 17 -5 20 3 4 1 7 -5 7 -6 0 -10 -9 -9 -19z"/>
<path d="M1964 1554 c-18 -14 -18 -15 4 -4 12 6 22 13 22 15 0 8 -5 6 -26 -11z"/>
<path d="M615 1520 c3 -5 11 -10 16 -10 6 0 7 5 4 10 -3 6 -11 10 -16 10 -6 0
-7 -4 -4 -10z"/>
<path d="M649 1483 c9 -18 8 -22 -7 -26 -15 -4 -15 -5 0 -6 24 -2 30 13 12 35
-14 18 -15 18 -5 -3z"/>
<path d="M1930 1486 c0 -2 7 -7 16 -10 8 -3 12 -2 9 4 -6 10 -25 14 -25 6z"/>
<path d="M653 1405 c0 -8 4 -12 9 -9 5 3 6 10 3 15 -9 13 -12 11 -12 -6z"/>
<path d="M660 1366 c0 -2 8 -10 18 -17 15 -13 16 -12 3 4 -13 16 -21 21 -21
13z"/>
<path d="M700 1340 c0 -5 7 -10 15 -10 8 0 15 -4 15 -10 0 -5 5 -10 11 -10 14
0 2 18 -22 30 -13 7 -19 7 -19 0z"/>
<path d="M1863 1331 c0 -11 5 -18 9 -15 4 3 5 11 1 19 -7 21 -12 19 -10 -4z"/>
<path d="M715 1291 c-3 -5 -2 -12 3 -15 5 -3 9 1 9 9 0 17 -3 19 -12 6z"/>
<path d="M756 1282 c-3 -5 1 -15 9 -22 8 -7 12 -16 9 -21 -3 -5 0 -9 5 -9 6 0
11 5 11 11 0 5 5 7 10 4 8 -5 7 -11 -1 -21 -10 -12 -10 -15 2 -12 8 2 13 -2
12 -9 -2 -11 21 -12 32 -2 2 3 -15 25 -39 48 -24 24 -46 38 -50 33z m25 -19
c13 -16 12 -17 -3 -4 -10 7 -18 15 -18 17 0 8 8 3 21 -13z m50 -50 c13 -16 12
-17 -3 -4 -10 7 -18 15 -18 17 0 8 8 3 21 -13z"/>
<path d="M1710 1190 c-9 -8 -31 -28 -50 -43 -19 -16 -29 -25 -22 -22 6 3 12 1
12 -4 0 -6 -4 -11 -10 -11 -5 0 -10 -6 -10 -12 0 -7 11 -1 24 12 13 14 22 27
20 29 -2 2 1 10 7 18 14 16 43 -2 32 -20 -4 -6 -1 -7 6 -2 9 5 10 10 2 18 -17
17 -13 26 9 22 23 -4 25 1 8 19 -10 9 -16 8 -28 -4z"/>
<path d="M1775 1200 c-3 -5 -1 -10 4 -10 6 0 11 5 11 10 0 6 -2 10 -4 10 -3 0
-8 -4 -11 -10z"/>
<path d="M815 1171 c-3 -5 -2 -12 3 -15 5 -3 9 1 9 9 0 17 -3 19 -12 6z"/>
<path d="M919 1138 c-6 -21 -5 -38 1 -38 5 0 8 9 7 20 -1 17 -5 26 -8 18z"/>
<path d="M1091 1061 c0 -3 4 -15 8 -26 7 -18 8 -17 13 6 3 17 0 26 -9 26 -7 0
-13 -3 -12 -6z"/>
<path d="M1188 1044 c-16 -8 -28 -17 -28 -20 0 -3 4 -2 10 1 5 3 20 1 32 -5
19 -9 20 -8 6 2 -15 11 -15 13 0 25 23 17 13 16 -20 -3z"/>
<path d="M1074 1042 c3 -5 0 -13 -6 -15 -9 -4 -10 -6 -1 -6 17 -1 25 16 12 25
-7 4 -9 3 -5 -4z"/>
<path d="M1135 1021 c-3 -5 -2 -12 3 -15 5 -3 9 1 9 9 0 17 -3 19 -12 6z"/>
<path d="M1519 1013 c-13 -16 -12 -17 4 -4 16 13 21 21 13 21 -2 0 -10 -8 -17
-17z"/>
<path d="M1295 1009 c-4 -6 -5 -12 -2 -15 2 -3 7 2 10 11 7 17 1 20 -8 4z"/>
<path d="M1332 1011 c-11 -7 -11 -9 0 -14 9 -3 15 1 15 9 0 8 -1 14 -1 14 -1
0 -7 -4 -14 -9z"/>
<path d="M960 1000 c0 -4 -32 -17 -85 -34 -11 -3 -35 -12 -80 -29 -16 -7 -33
-11 -37 -9 -5 1 -8 -2 -8 -8 0 -5 -9 -10 -19 -10 -11 0 -27 -7 -35 -16 -9 -8
-16 -12 -16 -8 0 3 -6 1 -13 -5 -8 -6 -17 -8 -20 -4 -4 3 -7 2 -7 -4 0 -9 -34
-24 -49 -22 -2 0 -7 -4 -11 -11 -4 -6 -13 -12 -21 -14 -8 -1 -33 -14 -56 -29
-24 -15 -45 -27 -49 -27 -3 0 -17 -9 -31 -20 -14 -11 -30 -17 -36 -13 -6 3 -7
1 -3 -5 4 -7 2 -12 -3 -12 -6 0 -21 -11 -33 -25 -12 -14 -26 -25 -31 -25 -20
0 -147 -146 -147 -169 0 -5 -10 -20 -22 -32 -13 -12 -17 -19 -10 -15 6 4 12 2
12 -3 0 -6 -5 -11 -12 -11 -6 0 -8 -3 -5 -6 3 -4 2 -15 -3 -25 -7 -12 -6 -19
3 -22 9 -4 9 -6 0 -6 -9 -1 -10 -8 -3 -27 8 -19 7 -23 -2 -18 -7 4 -1 -7 11
-25 13 -18 30 -35 37 -38 12 -4 12 -8 2 -21 -7 -9 -8 -13 -2 -9 6 3 22 8 37
11 20 3 24 1 20 -11 -4 -9 -8 -11 -12 -4 -4 6 -12 7 -21 1 -12 -8 -11 -10 5
-11 11 -1 24 -1 29 0 4 1 14 -3 20 -9 7 -5 16 -6 21 -2 4 4 5 -3 2 -15 -3 -13
-1 -26 4 -29 5 -3 9 -2 8 3 -3 20 2 46 8 40 3 -4 12 -2 20 4 15 13 18 -2 3
-17 -7 -7 -6 -11 4 -11 8 0 15 3 14 6 -3 33 13 35 56 8 14 -10 26 -14 25 -10
-3 20 2 31 14 29 25 -6 52 -20 65 -35 11 -14 12 -13 3 5 -7 15 -7 25 2 34 10
12 9 12 -4 2 -20 -15 -49 -5 -49 17 1 14 2 14 11 -1 5 -10 15 -18 21 -18 7 0
7 5 -1 14 -10 11 -9 14 3 12 9 -1 19 -5 22 -9 12 -12 26 -8 18 5 -5 7 -3 8 7
3 18 -12 49 -14 55 -4 6 11 34 0 34 -13 0 -6 -6 -5 -15 2 -12 10 -15 10 -15
-2 0 -8 10 -23 22 -34 16 -13 19 -14 10 -2 -8 10 -9 19 -3 22 5 4 13 -4 16
-15 7 -20 8 -21 17 -5 7 13 13 14 23 6 9 -8 14 -6 20 7 6 16 9 16 27 -7 12
-14 19 -18 15 -9 -3 9 -1 21 3 25 5 5 -8 10 -31 10 -26 1 -36 -2 -27 -8 8 -5
3 -7 -16 -4 -36 6 -43 13 -26 29 9 8 11 8 6 0 -3 -6 -2 -14 4 -18 5 -3 10 -1
10 5 0 6 8 10 18 9 9 -1 19 0 22 1 19 7 41 7 46 -1 3 -5 10 -9 15 -9 6 0 7 5
3 12 -5 7 -3 8 7 2 8 -5 22 -7 32 -6 9 2 17 -1 17 -7 0 -6 -6 -8 -14 -5 -8 3
-17 1 -20 -5 -4 -6 -13 -8 -21 -4 -21 7 -19 -12 3 -28 9 -7 14 -10 10 -5 -8
10 20 41 29 32 3 -3 1 -12 -5 -19 -9 -10 -8 -14 3 -14 7 0 14 3 13 6 -3 33 13
35 56 8 14 -10 26 -14 25 -10 -6 35 12 38 54 10 19 -12 28 -14 33 -5 5 7 3 8
-6 3 -8 -5 -11 -3 -8 6 3 8 -2 23 -11 34 -15 18 -15 19 1 7 10 -8 18 -9 22 -3
8 12 36 3 36 -11 0 -6 -6 -5 -15 2 -21 17 -20 -8 2 -35 12 -16 14 -16 10 -3
-3 10 -2 20 3 23 9 6 14 -8 11 -28 -1 -4 8 -2 19 5 12 8 18 19 14 30 -6 21 15
24 35 6 11 -11 13 -10 8 5 -6 15 -3 16 13 7 12 -6 21 -7 25 0 7 11 35 2 35
-12 0 -6 -6 -5 -15 2 -12 10 -15 10 -15 -3 0 -8 8 -21 17 -28 10 -8 14 -9 10
-2 -4 6 -3 14 3 18 9 5 14 -6 12 -26 -1 -3 5 -6 13 -6 12 0 11 4 -1 21 -17 24
-18 36 -3 36 5 0 8 -4 5 -9 -3 -5 2 -15 11 -22 14 -12 15 -11 9 9 -5 16 -3 22
8 22 8 0 18 -4 21 -10 3 -5 0 -8 -7 -7 -7 2 -10 2 -6 0 4 -2 5 -10 2 -18 -3
-7 -1 -16 5 -20 7 -4 8 1 4 12 -3 10 -3 15 2 11 4 -4 14 -3 22 3 15 13 18 -2
3 -17 -7 -7 -6 -11 4 -11 8 0 15 3 14 6 -3 33 13 35 56 8 14 -10 26 -14 25
-10 -3 20 2 31 14 29 25 -6 52 -20 65 -35 11 -14 12 -13 3 5 -7 15 -7 25 2 34
10 12 9 12 -4 2 -20 -15 -49 -5 -49 17 1 14 2 14 11 -1 5 -10 15 -18 21 -18 7
0 7 5 -1 14 -10 11 -9 14 3 12 9 -1 19 -5 22 -9 12 -12 26 -8 18 5 -5 7 -3 8
7 3 18 -12 49 -14 55 -4 6 11 34 0 34 -13 0 -6 -6 -5 -15 2 -12 10 -15 10 -15
-2 0 -8 10 -23 22 -34 16 -13 19 -14 10 -2 -8 10 -9 19 -3 22 5 4 13 -4 16
-15 7 -20 8 -21 17 -5 7 13 13 14 23 6 9 -8 14 -6 20 7 6 16 9 16 27 -7 12
-14 19 -18 15 -9 -3 9 -1 21 3 25 5 5 -8 10 -31 10 -26 1 -36 -2 -27 -8 8 -5
3 -7 -16 -4 -36 6 -43 13 -26 29 9 8 11 8 6 0 -3 -6 -2 -14 4 -18 5 -3 10 -1
10 5 0 6 8 10 18 9 9 -1 19 0 22 1 19 7 41 7 46 -1 3 -5 10 -9 15 -9 6 0 7 5
3 12 -5 7 -3 8 7 2 8 -5 22 -7 32 -6 9 2 17 -1 17 -7 0 -6 -6 -8 -14 -5 -8 3
-17 1 -20 -5 -4 -6 -13 -8 -21 -4 -21 7 -19 -12 3 -28 9 -7 14 -10 10 -5 -8
10 20 41 29 32 3 -3 1 -12 -5 -19 -9 -10 -8 -14 3 -14 7 0 14 3 13 6 -3 33 13
35 56 8 14 -10 26 -14 25 -10 -6 35 12 38 54 10 19 -12 28 -14 33 -5 5 7 3 8
-6 3 -8 -5 -11 -3 -8 6 3 8 -2 23 -11 34 -15 18 -15 19 1 7 10 -8 18 -9 22 -3
8 12 36 3 36 -11 0 -6 -6 -5 -15 2 -21 17 -20 -8 2 -35 12 -16 14 -16 10 -3
-3 10 -2 20 3 23 9 6 14 -8 11 -28 -1 -4 8 -2 19 5 12 8 18 19 14 30 -6 21 15
24 35 6 11 -11 13 -10 8 5 -6 15 -3 16 13 7 12 -6 21 -7 25 0 7 11 35 2 35
-12 0 -6 -6 -5 -15 2 -12 10 -15 10 -15 -3 0 -8 8 -21 17 -28 10 -8 14 -9 10
-2 -4 6 -3 14 3 18 9 5 14 -6 12 -26 -1 -3 5 -6 13 -6 12 0 11 4 -1 21 -17 24
-18 36 -3 36 5 0 8 -4 5 -9 -3 -5 2 -15 11 -22 14 -12 15 -11 9 9 -5 16 -3 22
8 22 8 0 18 -4 21 -10 3 -5 0 -8 -7 -7 -7 2 -10 2 -6 0 4 -2 5 -10 2 -18 -3
-7 -1 -16 5 -20 7 -4 8 1 4 12 -3 10 -3 15 2 11 4 -4 14 -3 22 3 15 13 18 -2
3 -17 -7 -7 -6 -11 4 -11 8 0 15 3 14 6 -3 29 12 35 40 18 13 -9 32 -1 32 14
0 5 -5 9 -11 9 -5 0 -7 -4 -4 -10 3 -6 -1 -7 -9 -4 -9 3 -14 10 -11 14 7 12
65 9 65 -2 0 -5 -6 -6 -12 -2 -7 4 -10 4 -6 -1 4 -4 3 -14 -3 -21 -7 -8 -6
-14 2 -20 7 -4 9 -3 6 3 -7 12 16 36 26 27 3 -3 3 3 0 15 -6 22 11 29 23 9 4
-7 3 -8 -4 -4 -8 5 -10 1 -5 -10 6 -15 7 -15 15 1 6 9 7 19 4 22 -3 4 3 13 14
20 11 8 17 19 14 25 -4 7 -2 8 4 4 7 -4 13 -2 13 3 1 6 3 16 4 21 1 6 3 15 4
21 0 5 6 7 11 4 6 -3 10 -1 10 4 0 6 -7 11 -15 11 -13 0 -14 4 -5 20 7 14 7
20 0 20 -5 0 -10 6 -10 14 0 8 -10 31 -21 51 -12 20 -19 39 -15 42 3 3 -3 13
-14 20 -11 8 -18 19 -15 24 4 5 -2 9 -11 9 -10 0 -15 3 -12 6 7 6 -78 94 -90
94 -4 0 -15 8 -24 18 -26 27 -46 42 -58 42 -5 0 -10 5 -10 10 0 6 -7 10 -15
10 -8 0 -15 4 -15 9 0 5 -16 15 -35 22 -19 7 -35 17 -35 21 0 4 -7 8 -15 8 -8
0 -15 5 -15 11 0 5 -4 8 -9 4 -5 -3 -16 2 -24 10 -9 8 -20 15 -26 15 -18 0
-101 43 -101 53 0 4 -3 6 -8 3 -4 -2 -23 3 -42 12 -40 18 -37 16 -72 26 -16 5
-25 13 -21 19 3 6 1 7 -5 3 -6 -4 -27 0 -47 8 -20 9 -39 15 -43 14 -4 -1 -16
3 -28 9 -29 17 -114 4 -114 -18 0 -5 -5 -9 -11 -9 -7 0 -22 -11 -35 -26 -13
-14 -24 -22 -24 -19 0 3 -6 0 -14 -7 -8 -7 -12 -16 -9 -20 2 -5 -1 -8 -8 -8
-6 0 -22 -11 -34 -24 -13 -14 -26 -22 -29 -19 -3 4 -6 1 -6 -5 0 -7 -7 -12
-16 -12 -8 0 -13 -4 -10 -9 14 -22 -27 -19 -50 4 -14 14 -27 25 -29 25 -11 0
-54 44 -50 50 3 4 -3 7 -13 6 -9 0 -16 5 -14 12 1 8 -2 11 -8 7 -5 -3 -13 1
-16 9 -3 9 -10 16 -16 16 -18 0 -38 29 -32 47 5 14 4 15 -4 4 -7 -9 -16 -11
-28 -5 -21 9 -94 12 -94 4z m51 -251 c5 -11 14 -17 18 -14 10 6 33 -19 25 -28
-3 -3 -1 -14 5 -24 11 -17 11 -17 9 1 -2 10 3 20 10 22 7 1 8 0 3 -2 -6 -3 -7
-12 -4 -20 5 -13 7 -13 14 -2 7 10 9 10 9 0 0 -7 -10 -16 -22 -21 l-22 -8 22
-5 c12 -4 20 -3 17 2 -3 4 2 11 11 14 10 4 13 2 8 -6 -5 -8 -2 -9 10 -5 10 4
19 1 22 -8 4 -8 11 -12 18 -8 6 3 8 3 4 -2 -11 -12 12 -36 26 -28 6 4 5 -1 -3
-10 -7 -9 -10 -17 -5 -17 5 0 2 -5 -6 -11 -12 -8 -10 -9 8 -4 13 4 22 2 22 -4
0 -6 -6 -11 -14 -11 -8 0 -17 -4 -20 -9 -4 -5 3 -7 14 -4 30 8 36 24 15 40
-11 7 -14 13 -7 13 6 0 21 -8 32 -17 21 -18 24 -19 57 -22 14 -1 14 -4 5 -13
-10 -10 -15 -10 -22 2 -5 8 -10 11 -10 6 0 -5 -8 -2 -17 5 -15 12 -16 12 -8
-1 5 -8 8 -22 7 -32 -2 -9 1 -19 7 -22 5 -3 7 3 4 14 -3 12 0 20 6 20 7 0 9
-5 5 -11 -5 -8 -1 -8 14 0 32 17 39 12 13 -9 -13 -11 -19 -20 -13 -20 6 0 17
6 25 14 11 12 17 12 28 3 9 -9 9 -7 -1 7 -21 27 -22 49 -1 43 9 -2 22 2 29 10
7 7 18 10 24 7 8 -5 9 -1 4 12 -4 10 -4 16 -1 12 4 -3 22 11 40 31 34 37 74
48 83 23 2 -7 8 -12 14 -12 6 0 4 7 -3 17 -12 15 -12 16 3 10 12 -4 15 -2 11
9 -6 15 -23 20 -23 6 0 -5 -7 -9 -16 -9 -14 0 -14 2 2 14 10 7 23 13 28 13 6
0 4 5 -4 11 -13 9 -13 10 0 6 8 -2 21 5 30 15 10 12 20 15 29 9 9 -6 10 -11 2
-15 -6 -4 -11 -2 -11 4 0 6 -4 8 -10 5 -12 -7 -14 -26 -2 -24 19 3 33 -2 27
-11 -3 -6 1 -7 9 -4 9 3 16 10 16 16 0 5 -5 6 -12 2 -8 -5 -9 -2 -5 9 3 9 2
19 -3 22 -6 4 -10 11 -10 17 0 6 11 -2 25 -18 14 -16 23 -35 20 -42 -3 -7 0
-10 6 -7 6 4 8 14 5 22 -4 9 -1 13 6 10 7 -2 12 -13 10 -23 -2 -18 -2 -18 9
-1 8 14 14 16 25 6 8 -6 14 -9 14 -5 0 4 11 -1 24 -9 18 -12 26 -13 32 -4 5 8
3 9 -6 4 -9 -5 -11 -4 -6 3 4 8 2 10 -7 6 -8 -3 -18 0 -22 5 -3 6 -11 8 -17 5
-7 -4 -8 -2 -4 4 4 7 0 10 -12 7 -12 -2 -18 3 -18 17 0 17 2 17 11 4 9 -12 14
-13 23 -4 12 12 13 10 16 -14 0 -6 7 -13 15 -16 9 -3 11 0 6 9 -6 9 -2 9 11
-2 10 -9 25 -14 32 -12 6 3 12 -1 12 -7 0 -7 7 -10 14 -7 10 4 13 1 9 -9 -7
-18 -13 -18 -29 4 -12 15 -13 15 -14 1 0 -20 28 -33 44 -21 10 7 20 8 42 3 3
0 2 -6 -1 -11 -5 -8 -12 -7 -23 2 -12 10 -14 10 -8 1 4 -7 2 -13 -3 -13 -6 0
-11 -5 -11 -11 0 -6 5 -7 13 -2 35 22 64 12 58 -20 -1 -5 3 -6 8 -2 6 3 8 13
5 23 -4 10 -3 13 3 6 4 -6 16 -10 25 -9 10 2 17 0 17 -3 -3 -19 2 -23 14 -14
10 8 13 6 14 -9 2 -22 -7 -25 -25 -7 -7 7 -12 8 -12 2 0 -6 12 -16 26 -22 14
-7 22 -17 19 -22 -10 -16 1 -11 16 7 8 10 9 14 2 10 -6 -4 -14 -3 -17 2 -4 5
7 9 24 9 16 -1 30 -5 30 -10 0 -5 5 -6 10 -3 6 4 9 3 8 -2 -2 -4 1 -9 5 -10 4
-1 15 -9 23 -18 9 -8 20 -13 25 -10 5 4 6 -2 2 -11 -5 -13 -3 -15 7 -9 9 6 11
4 6 -4 -6 -8 -2 -11 10 -9 12 2 19 -3 19 -12 0 -8 -9 -15 -20 -15 -11 0 -23
-4 -27 -10 -5 -6 -8 -5 -8 3 0 7 -5 10 -11 6 -18 -11 -139 -12 -132 -1 4 6 1
7 -8 1 -17 -10 -559 -13 -553 -2 3 4 -6 4 -20 -2 -25 -9 -30 -6 -27 13 1 5 -3
6 -9 2 -6 -3 -8 -9 -6 -13 2 -4 -27 -7 -65 -7 -55 0 -69 3 -70 15 0 13 -1 13
-7 0 -4 -8 -16 -17 -26 -18 -18 -3 -18 -2 -6 15 14 17 14 17 -5 2 -21 -17
-109 -20 -134 -4 -8 5 -12 4 -8 -1 3 -6 -100 -9 -266 -7 -310 3 -316 3 -299
10 6 3 10 9 7 13 -3 5 0 12 6 16 8 4 9 3 5 -4 -8 -14 -5 -15 19 -6 13 6 14 9
3 16 -9 7 -8 8 6 4 13 -5 17 -2 13 8 -3 8 2 21 11 29 15 13 20 14 36 2 13 -10
24 -11 38 -4 10 5 23 7 28 4 6 -3 10 -1 10 5 0 8 -9 10 -26 6 -19 -5 -24 -4
-18 6 6 10 3 9 -9 -1 -9 -7 -17 -9 -17 -3 0 13 26 23 44 16 16 -6 40 29 28 41
-4 5 -1 5 6 1 7 -5 18 -18 23 -30 9 -21 10 -21 5 2 -2 12 0 22 5 22 4 0 5 8 2
17 -6 15 -5 16 9 3 9 -8 13 -17 9 -20 -10 -8 -9 -50 0 -44 5 3 7 9 5 13 -3 4
-1 13 4 21 5 9 5 19 -2 27 -6 7 -8 14 -4 14 3 1 11 3 16 4 6 1 15 3 21 4 5 0
7 5 4 11 -4 6 1 7 11 3 12 -4 15 -3 10 5 -5 8 -1 10 10 5 13 -5 15 -3 9 7 -6
9 -4 11 5 5 10 -6 9 -11 -5 -22 -11 -7 -13 -13 -6 -13 7 0 10 -4 6 -9 -3 -5 0
-13 6 -17 7 -4 9 -3 6 3 -7 12 20 26 33 18 4 -3 6 4 3 16 -5 18 -7 19 -15 5
-5 -9 -13 -16 -19 -16 -15 0 14 40 34 46 9 3 15 10 12 15 -10 15 2 10 16 -8
12 -14 12 -16 0 -8 -10 5 -12 4 -7 -4 6 -9 11 -9 24 1 14 11 15 10 9 -7 -7
-19 -6 -19 7 -2 9 11 16 14 19 7 3 -6 4 -5 3 2 -2 7 -13 12 -24 12 -12 -1 -22
3 -22 8 0 6 7 8 15 4 8 -3 15 -1 15 5 0 6 7 3 16 -5 18 -18 40 -21 49 -6 3 6
11 10 17 10 6 0 5 -7 -3 -17 -12 -17 -12 -17 6 -1 17 16 20 16 36 2 16 -14 17
-14 14 3 -1 10 -7 17 -12 16 -6 -1 -15 9 -21 22 -9 20 -9 23 4 18 8 -3 19 -14
25 -24z m-31 -17 c0 -2 -5 0 -10 3 -6 4 -17 1 -25 -5 -20 -17 -46 -5 -38 16 6
15 7 16 18 1 14 -19 26 -12 18 10 -5 12 -1 11 15 -3 12 -10 22 -20 22 -22z
m657 31 c-4 -3 0 -11 9 -17 13 -10 13 -12 -4 -12 -12 0 -18 6 -17 16 5 21 4
20 12 20 3 0 3 -3 0 -7z m-1309 -516 c6 3 12 0 12 -7 0 -6 -4 -9 -9 -5 -5 3
-12 1 -15 -3 -8 -13 -59 -8 -64 6 -5 16 10 15 27 0 11 -11 13 -10 8 5 -5 14
-3 16 11 9 9 -5 23 -7 30 -5z m74 -17 c7 0 6 6 -2 15 -11 13 -10 14 4 9 18 -7
18 -7 10 -28 -5 -12 -9 -13 -25 -3 -10 6 -19 19 -19 27 1 12 3 11 11 -2 5 -10
15 -18 21 -18z m480 0 c7 0 6 6 -2 15 -11 13 -10 14 4 9 18 -7 18 -7 10 -28
-5 -12 -9 -13 -25 -3 -10 6 -19 19 -19 27 1 12 3 11 11 -2 5 -10 15 -18 21
-18z m83 -8 c-6 -8 -35 12 -35 24 0 11 4 10 18 -3 10 -10 18 -19 17 -21z m335
15 c0 -6 -3 -7 -7 -4 -3 4 -11 3 -17 -3 -8 -6 -12 -3 -12 9 0 12 6 17 18 13
10 -2 18 -9 18 -15z m62 -7 c7 0 6 6 -2 15 -11 13 -10 14 4 9 18 -7 18 -7 10
-28 -5 -12 -9 -13 -25 -3 -10 6 -19 19 -19 27 1 12 3 11 11 -2 5 -10 15 -18
21 -18z m480 0 c7 0 6 6 -2 15 -11 13 -10 14 4 9 18 -7 18 -7 10 -28 -5 -12
-9 -13 -25 -3 -10 6 -19 19 -19 27 1 12 3 11 11 -2 5 -10 15 -18 21 -18z m83
-8 c-6 -8 -35 12 -35 24 0 11 4 10 18 -3 10 -10 18 -19 17 -21z m335 15 c0 -6
-3 -7 -7 -4 -3 4 -11 3 -17 -3 -8 -6 -12 -3 -12 9 0 12 6 17 18 13 10 -2 18
-9 18 -15z m23 8 c-3 -9 -8 -14 -10 -11 -3 3 -2 9 2 15 9 16 15 13 8 -4z
m-1230 -10 c4 -8 1 -17 -5 -21 -7 -4 -8 -3 -4 4 4 7 2 12 -3 12 -6 0 -11 5
-11 10 0 15 17 12 23 -5z m960 0 c4 -8 1 -17 -5 -21 -7 -4 -8 -3 -4 4 4 7 2
12 -3 12 -6 0 -11 5 -11 10 0 15 17 12 23 -5z"/>
<path d="M1030 720 c0 -5 5 -10 11 -10 5 0 7 5 4 10 -3 6 -8 10 -11 10 -2 0
-4 -4 -4 -10z"/>
<path d="M975 700 c-3 -5 -1 -10 4 -10 6 0 11 5 11 10 0 6 -2 10 -4 10 -3 0
-8 -4 -11 -10z"/>
<path d="M1540 700 c0 -6 7 -10 15 -10 8 0 15 2 15 4 0 2 -7 6 -15 10 -8 3
-15 1 -15 -4z"/>
<path d="M820 681 c14 -27 27 -34 36 -20 5 8 3 9 -5 5 -8 -5 -14 0 -18 13 -3
12 -9 21 -15 21 -5 0 -4 -9 2 -19z"/>
<path d="M913 685 c0 -8 4 -12 9 -9 5 3 6 10 3 15 -9 13 -12 11 -12 -6z"/>
<path d="M1030 692 c0 -7 -5 -10 -12 -6 -7 4 -8 3 -4 -5 4 -6 12 -9 17 -6 5 4
9 1 9 -6 0 -7 3 -10 6 -6 3 3 1 14 -5 24 -6 11 -11 13 -11 5z"/>
<path d="M1718 663 c7 -3 16 -2 19 1 4 3 -2 6 -13 5 -11 0 -14 -3 -6 -6z"/>
<path d="M1753 655 c0 -8 4 -12 9 -9 5 3 6 10 3 15 -9 13 -12 11 -12 -6z"/>
<path d="M723 653 c-7 -2 -13 -9 -13 -15 0 -6 7 -4 17 3 15 12 16 12 10 -4 -4
-11 -3 -16 3 -12 12 7 14 35 3 34 -5 0 -14 -3 -20 -6z"/>
<path d="M1437 632 c-32 -33 -34 -41 -8 -39 14 1 17 5 10 13 -6 8 -6 14 0 18
5 3 11 0 13 -6 3 -8 9 -5 16 9 18 33 -1 36 -31 5z"/>
<path d="M1130 641 c0 -7 -4 -10 -9 -7 -5 4 -4 -5 2 -19 10 -20 13 -21 18 -8
3 11 8 13 12 6 4 -6 4 -19 0 -29 -4 -12 -3 -15 5 -10 17 10 15 24 -8 53 -11
14 -20 20 -20 14z"/>
<path d="M1491 634 c0 -11 3 -14 6 -6 3 7 2 16 -1 19 -3 4 -6 -2 -5 -13z"/>
<path d="M1855 630 c-3 -5 -1 -10 4 -10 6 0 11 5 11 10 0 6 -2 10 -4 10 -3 0
-8 -4 -11 -10z"/>
<path d="M1090 620 c0 -5 5 -10 11 -10 5 0 7 5 4 10 -3 6 -8 10 -11 10 -2 0
-4 -4 -4 -10z"/>
<path d="M1915 620 c3 -5 2 -10 -3 -10 -6 0 -13 -8 -16 -17 -6 -15 -5 -15 13
1 18 16 20 36 5 36 -3 0 -2 -4 1 -10z"/>
<path d="M710 611 c0 -5 7 -12 16 -15 14 -5 15 -4 4 9 -14 17 -20 19 -20 6z"/>
<path d="M630 581 c0 -6 4 -13 10 -16 6 -3 7 1 4 9 -7 18 -14 21 -14 7z"/>
<path d="M1933 565 c0 -8 4 -12 9 -9 5 3 6 10 3 15 -9 13 -12 11 -12 -6z"/>
<path d="M2012 556 c2 -25 18 -38 18 -15 0 5 4 8 9 5 5 -3 8 -14 6 -24 -1 -9
0 -11 2 -4 3 6 9 12 14 12 6 0 8 -4 5 -9 -8 -12 13 -28 47 -36 18 -5 27 -3 27
5 0 6 -5 8 -11 4 -6 -3 -21 3 -33 15 -11 11 -36 33 -53 47 l-33 26 2 -26z"/>
<path d="M1359 554 c-6 -8 -15 -11 -20 -8 -10 6 -12 -9 -2 -19 3 -4 12 2 20
12 8 12 20 17 33 14 11 -3 20 -3 20 0 0 12 -41 13 -51 1z"/>
<path d="M513 549 c-8 -9 -9 -20 -3 -29 8 -13 12 -12 27 4 10 10 13 16 6 12
-6 -3 -13 1 -15 10 -3 15 -5 15 -15 3z"/>
<path d="M533 495 c-3 -9 -3 -18 -1 -21 3 -3 8 4 11 16 6 23 -1 27 -10 5z"/>
<path d="M1370 499 c0 -5 5 -7 10 -4 6 3 10 8 10 11 0 2 -4 4 -10 4 -5 0 -10
-5 -10 -11z"/>
<path d="M482 491 c-11 -7 -10 -10 3 -15 23 -9 25 -8 25 9 0 17 -9 19 -28 6z"/>
<path d="M2050 479 c0 -5 5 -7 10 -4 6 3 10 8 10 11 0 2 -4 4 -10 4 -5 0 -10
-5 -10 -11z"/>
<path d="M1436 998 c3 -5 10 -6 15 -3 13 9 11 12 -6 12 -8 0 -12 -4 -9 -9z"/>
<path d="M2433 495 c0 -8 4 -12 9 -9 5 3 6 10 3 15 -9 13 -12 11 -12 -6z"/>
<path d="M96 387 c3 -10 9 -15 12 -12 3 3 0 11 -7 18 -10 9 -11 8 -5 -6z"/>
<path d="M115 301 c-4 -7 -1 -10 7 -9 7 2 12 -3 10 -10 -1 -8 2 -11 7 -8 5 4
11 0 14 -6 2 -7 7 -10 11 -7 3 3 -5 16 -18 28 -16 15 -26 19 -31 12z"/>
<path d="M2432 278 c-7 -7 -12 -16 -12 -21 0 -5 7 -1 16 8 9 9 14 18 12 20 -2
3 -10 -1 -16 -7z"/>
<path d="M2436 233 c-6 -14 -5 -15 5 -6 7 7 10 15 7 18 -3 3 -9 -2 -12 -12z"/>
<path d="M523 233 c-7 -3 -13 -9 -13 -14 0 -6 5 -7 12 -3 8 5 9 1 5 -12 -5
-14 -2 -12 12 6 11 14 23 21 27 17 4 -4 2 -7 -3 -7 -6 0 -10 -7 -9 -15 3 -19
13 -29 13 -12 0 6 2 19 4 27 4 14 -23 21 -48 13z"/>
<path d="M1077 234 c9 -4 9 -13 3 -30 -7 -17 -7 -23 0 -19 6 3 10 12 10 19 0
19 30 16 31 -3 0 -12 3 -10 8 4 11 26 3 39 -14 25 -9 -8 -15 -8 -20 0 -3 5
-12 10 -18 9 -9 0 -9 -2 0 -5z"/>
<path d="M1483 233 c-7 -3 -13 -9 -13 -14 0 -6 5 -7 12 -3 8 5 9 1 5 -12 -5
-14 -2 -12 12 6 11 14 23 21 27 17 4 -4 2 -7 -3 -7 -6 0 -10 -7 -9 -15 3 -19
13 -29 13 -12 0 6 2 19 4 27 4 14 -23 21 -48 13z"/>
<path d="M2037 234 c9 -4 9 -13 3 -30 -7 -17 -7 -23 0 -19 6 3 10 12 10 19 0
19 30 16 31 -3 0 -12 3 -10 8 4 11 26 3 39 -14 25 -9 -8 -15 -8 -20 0 -3 5
-12 10 -18 9 -9 0 -9 -2 0 -5z"/>
<path d="M160 220 c-12 -7 -10 -9 7 -7 12 0 19 5 17 9 -6 10 -6 10 -24 -2z"/>
<path d="M350 199 c0 -5 5 -7 10 -4 6 3 10 8 10 11 0 2 -4 4 -10 4 -5 0 -10
-5 -10 -11z"/>
<path d="M430 199 c0 -5 5 -7 10 -4 6 3 10 8 10 11 0 2 -4 4 -10 4 -5 0 -10
-5 -10 -11z"/>
<path d="M830 199 c0 -5 5 -7 10 -4 6 3 10 8 10 11 0 2 -4 4 -10 4 -5 0 -10
-5 -10 -11z"/>
<path d="M910 199 c0 -5 5 -7 10 -4 6 3 10 8 10 11 0 2 -4 4 -10 4 -5 0 -10
-5 -10 -11z"/>
<path d="M1310 199 c0 -5 5 -7 10 -4 6 3 10 8 10 11 0 2 -4 4 -10 4 -5 0 -10
-5 -10 -11z"/>
<path d="M1390 199 c0 -5 5 -7 10 -4 6 3 10 8 10 11 0 2 -4 4 -10 4 -5 0 -10
-5 -10 -11z"/>
<path d="M1790 199 c0 -5 5 -7 10 -4 6 3 10 8 10 11 0 2 -4 4 -10 4 -5 0 -10
-5 -10 -11z"/>
<path d="M1870 199 c0 -5 5 -7 10 -4 6 3 10 8 10 11 0 2 -4 4 -10 4 -5 0 -10
-5 -10 -11z"/>
</g>
</svg>
